<svg viewBox="0 0 18 18" fill="none" xmlns="http://www.w3.org/2000/svg">
    <path
        d="M15.25 0C16.7688 0 18 1.23122 18 2.75V15.25C18 16.7688 16.7688 18 15.25 18H2.75C1.23122 18 0 16.7688 0 15.25V2.75C0 1.23122 1.23122 0 2.75 0H15.25ZM15.25 1.5H2.75C2.05964 1.5 1.5 2.05964 1.5 2.75V15.25C1.5 15.9404 2.05964 16.5 2.75 16.5H15.25C15.9404 16.5 16.5 15.9404 16.5 15.25V2.75C16.5 2.05964 15.9404 1.5 15.25 1.5ZM11.25 8.5H3.75L3.64823 8.50685C3.28215 8.55651 3 8.8703 3 9.25C3 9.66421 3.33579 10 3.75 10H11.25L11.3518 9.99315C11.7178 9.94349 12 9.6297 12 9.25C12 8.83579 11.6642 8.5 11.25 8.5ZM3.75 12.5H14.25C14.6642 12.5 15 12.8358 15 13.25C15 13.6297 14.7178 13.9435 14.3518 13.9932L14.25 14H3.75C3.33579 14 3 13.6642 3 13.25C3 12.8703 3.28215 12.5565 3.64823 12.5068L3.75 12.5ZM14.25 4.5H3.75L3.64823 4.50685C3.28215 4.55651 3 4.8703 3 5.25C3 5.66421 3.33579 6 3.75 6H14.25L14.3518 5.99315C14.7178 5.94349 15 5.6297 15 5.25C15 4.83579 14.6642 4.5 14.25 4.5Z"
        fill="#242424" />
</svg>