<svg viewBox="0 0 14 10" fill="none" xmlns="http://www.w3.org/2000/svg">
    <path
        d="M0.5 0C0.223858 0 0 0.223858 0 0.5C0 0.776142 0.223858 1 0.5 1H6C6.27614 1 6.5 0.776142 6.5 0.5C6.5 0.223858 6.27614 0 6 0H0.5ZM3.5 3C3.22386 3 3 3.22386 3 3.5C3 3.77614 3.22386 4 3.5 4H7.5C7.77614 4 8 3.77614 8 3.5C8 3.22386 7.77614 3 7.5 3H3.5ZM2 6.5C2 6.22386 2.22386 6 2.5 6H10.5C10.7761 6 11 6.22386 11 6.5C11 6.77614 10.7761 7 10.5 7H2.5C2.22386 7 2 6.77614 2 6.5ZM0.5 9C0.223858 9 0 9.22386 0 9.5C0 9.77614 0.223858 10 0.5 10H8C8.27614 10 8.5 9.77614 8.5 9.5C8.5 9.22386 8.27614 9 8 9H0.5ZM9.5 3.5C9.5 3.22386 9.72386 3 10 3H12.5C12.7761 3 13 3.22386 13 3.5C13 3.77614 12.7761 4 12.5 4H10C9.72386 4 9.5 3.77614 9.5 3.5ZM8.5 0C8.22386 0 8 0.223858 8 0.5C8 0.776142 8.22386 1 8.5 1H13.5C13.7761 1 14 0.776142 14 0.5C14 0.223858 13.7761 0 13.5 0H8.5Z"
        fill="#242424" />
</svg>