<svg width="18" height="18" viewBox="0 0 18 18" fill="none" xmlns="http://www.w3.org/2000/svg">
    <path
        d="M2.74908 0C3.99122 0 4.99817 1.00695 4.99817 2.24908V15.7509C4.99817 16.9931 3.99122 18 2.74908 18C1.50695 18 0.5 16.9931 0.5 15.7509V2.24908C0.5 1.00695 1.50695 0 2.74908 0ZM9.24908 4C10.4912 4 11.4982 5.00695 11.4982 6.24908V15.7509C11.4982 16.9931 10.4912 18 9.24908 18C8.00695 18 7 16.9931 7 15.7509V6.24908C7 5.00695 8.00695 4 9.24908 4ZM15.7491 8C16.9912 8 17.9982 9.00695 17.9982 10.2491V15.7509C17.9982 16.9931 16.9912 18 15.7491 18C14.5069 18 13.5 16.9931 13.5 15.7509V10.2491C13.5 9.00695 14.5069 8 15.7491 8ZM2.74908 1.5C2.33538 1.5 2 1.83538 2 2.24908V15.7509C2 16.1646 2.33538 16.5 2.74908 16.5C3.16279 16.5 3.49817 16.1646 3.49817 15.7509V2.24908C3.49817 1.83538 3.16279 1.5 2.74908 1.5ZM9.24908 5.5C8.83537 5.5 8.5 5.83537 8.5 6.24908V15.7509C8.5 16.1646 8.83537 16.5 9.24908 16.5C9.66279 16.5 9.99817 16.1646 9.99817 15.7509V6.24908C9.99817 5.83537 9.66279 5.5 9.24908 5.5ZM15.7491 9.5C15.3354 9.5 15 9.83537 15 10.2491V15.7509C15 16.1646 15.3354 16.5 15.7491 16.5C16.1628 16.5 16.4982 16.1646 16.4982 15.7509V10.2491C16.4982 9.83537 16.1628 9.5 15.7491 9.5Z"
        fill="#242424" />
</svg>