<svg viewBox="0 0 20 14" fill="none" xmlns="http://www.w3.org/2000/svg">
    <path
        d="M0 0.75C0 0.335786 0.335786 0 0.75 0H16.25C16.6642 0 17 0.335786 17 0.75C17 1.16421 16.6642 1.5 16.25 1.5H0.75C0.335786 1.5 0 1.16421 0 0.75ZM0 12.75C0 12.3358 0.335786 12 0.75 12H13.25C13.6642 12 14 12.3358 14 12.75C14 13.1642 13.6642 13.5 13.25 13.5H0.75C0.335786 13.5 0 13.1642 0 12.75ZM0.75 6C0.335786 6 0 6.33579 0 6.75C0 7.16421 0.335786 7.5 0.75 7.5H19.25C19.6642 7.5 20 7.16421 20 6.75C20 6.33579 19.6642 6 19.25 6H0.75Z"
        fill="#242424" />
</svg>