<svg viewBox="0 0 20 20" fill="none" xmlns="http://www.w3.org/2000/svg">
    <path
        d="M10 0C15.5228 0 20 4.47715 20 10C20 15.5228 15.5228 20 10 20C4.47715 20 0 15.5228 0 10C0 4.47715 4.47715 0 10 0ZM10 1.5C5.30558 1.5 1.5 5.30558 1.5 10C1.5 14.6944 5.30558 18.5 10 18.5C14.6944 18.5 18.5 14.6944 18.5 10C18.5 5.30558 14.6944 1.5 10 1.5ZM10 3.20192C12.7614 3.20192 15 5.4405 15 8.20192C15 9.73828 14.3017 11.1615 13.1098 12.117L13.142 12.089L12.3774 15.4565C12.2233 16.1241 11.6925 16.6315 10.9979 16.7671L10.8466 16.7904L10.6909 16.7981H9.30906C8.575 16.7981 7.92282 16.3353 7.66511 15.6064L7.62209 15.4542L6.856 12.088L6.70145 11.9593C5.76934 11.1412 5.16573 9.99848 5.02868 8.72887L5.00753 8.47331L5 8.20192C5 5.4405 7.23858 3.20192 10 3.20192ZM11.17 14H8.828L9.07336 15.0777L9.09176 15.1451C9.12414 15.2363 9.21127 15.2981 9.30906 15.2981L10.6481 15.2993L10.7179 15.2965C10.814 15.2855 10.8938 15.2145 10.9152 15.1216L11.17 14ZM10 4.70192C8.067 4.70192 6.5 6.26893 6.49969 8.18026L6.50596 8.40827C6.56761 9.47232 7.10905 10.4368 7.96451 11.049C8.11373 11.1558 8.21862 11.3136 8.25932 11.4926L8.488 12.502L8.52885 12.5H11.4712L11.51 12.502L11.7396 11.4938C11.771 11.356 11.8404 11.2306 11.939 11.1314L12.0183 11.0621L12.1879 10.934C13.0119 10.2731 13.5 9.27836 13.5 8.20192C13.5 6.26893 11.933 4.70192 10 4.70192Z"
        fill="#242424" />
</svg>