<svg width="21" height="19" viewBox="0 0 21 19" fill="none" xmlns="http://www.w3.org/2000/svg">
    <path
        d="M4 4.75C4 4.33579 4.33579 4 4.75 4H9.25C9.66421 4 10 4.33579 10 4.75C10 5.16421 9.66421 5.5 9.25 5.5H4.75C4.33579 5.5 4 5.16421 4 4.75ZM4.75 7C4.33579 7 4 7.33579 4 7.75C4 8.16421 4.33579 8.5 4.75 8.5H13.25C13.6642 8.5 14 8.16421 14 7.75C14 7.33579 13.6642 7 13.25 7H4.75ZM4 10.75C4 10.3358 4.33579 10 4.75 10H11.25C11.6642 10 12 10.3358 12 10.75C12 11.1642 11.6642 11.5 11.25 11.5H4.75C4.33579 11.5 4 11.1642 4 10.75ZM0 2.75C0 1.23122 1.23122 0 2.75 0H17.25C18.7688 0 20 1.23122 20 2.75V10H19.9646C19.8243 9.01918 19.2773 8.16954 18.5 7.62734V2.75C18.5 2.05964 17.9404 1.5 17.25 1.5H2.75C2.05964 1.5 1.5 2.05964 1.5 2.75V13.25C1.5 13.9404 2.05964 14.5 2.75 14.5H11.3084C11.1113 14.8809 11 15.3134 11 15.772V15.875C11 15.9167 11.0007 15.9583 11.002 16H2.75C1.23122 16 0 14.7688 0 13.25V2.75ZM19 10.5C19 11.8807 17.8807 13 16.5 13C15.1193 13 14 11.8807 14 10.5C14 9.11929 15.1193 8 16.5 8C17.8807 8 19 9.11929 19 10.5ZM21 15.875C21 17.4315 19.7143 19 16.5 19C13.2857 19 12 17.4374 12 15.875V15.772C12 14.7929 12.7937 14 13.7727 14H19.2273C20.2063 14 21 14.793 21 15.772V15.875Z"
        fill="#242424" />
</svg>