<svg width="22" height="20" viewBox="0 0 22 20" fill="none" xmlns="http://www.w3.org/2000/svg">
    <path
        d="M18.7992 0.00774359V0H6.75C4.95507 0 3.5 1.45507 3.5 3.25V13.5H1.75C0.783502 13.5 0 14.2835 0 15.25V17.075C0 18.7647 1.37686 20 3 20H14.0195V19.9919C14.0971 19.9972 14.1752 20 14.2539 20C16.0144 20 17.51 18.645 17.531 16.8875L17.5312 16.85V6.5L20.7955 6.5C21.4607 6.5 22 5.96071 22 5.29545V2.98414C22 1.33604 20.664 0 19.0159 0C18.943 0 18.8708 0.00261068 18.7992 0.00774359ZM6.75 1.5H16.4264C16.1752 1.93722 16.0317 2.44408 16.0317 2.98447L16.0312 16.85C16.0312 17.7252 15.2725 18.5 14.2539 18.5C13.2353 18.5 12.4766 17.7252 12.4766 16.85V14.75C12.4766 14.0596 11.9169 13.5 11.2266 13.5H5V3.25C5 2.2835 5.7835 1.5 6.75 1.5ZM1.75 15H10.9766V16.85C10.9766 17.4606 11.1545 18.0238 11.46 18.5H3C2.13786 18.5 1.5 17.8705 1.5 17.075V15.25C1.5 15.1119 1.61193 15 1.75 15ZM20.5 2.98414V5L17.5319 5L17.5317 2.98431C17.5316 2.16457 18.1961 1.5 19.0159 1.5C19.8355 1.5 20.5 2.16447 20.5 2.98414Z"
        fill="#242424" />
</svg>