<svg viewBox="0 0 20 19" fill="none" xmlns="http://www.w3.org/2000/svg">
    <path
        d="M0 11.75C0 13.5449 1.45507 15 3.25 15H3.99921L4 17.7499C4 18.0196 4.08736 18.2822 4.24901 18.4984C4.6625 19.0512 5.44585 19.1642 5.99868 18.7507L11.0125 15H16.75C18.5449 15 20 13.5449 20 11.75V3.25C20 1.45507 18.5449 0 16.75 0H3.25C1.45507 0 0 1.45507 0 3.25V11.75ZM16.75 13.5H10.5135L5.49986 17.2506L5.49879 13.5H3.25C2.2835 13.5 1.5 12.7165 1.5 11.75V3.25C1.5 2.2835 2.2835 1.5 3.25 1.5H16.75C17.7165 1.5 18.5 2.2835 18.5 3.25V11.75C18.5 12.7165 17.7165 13.5 16.75 13.5ZM9.25 9H16.25C16.6642 9 17 8.66421 17 8.25C17 7.83579 16.6642 7.5 16.25 7.5H9.25C8.83579 7.5 8.5 7.83579 8.5 8.25C8.5 8.66421 8.83579 9 9.25 9ZM6.25 7.5H3.75C3.33579 7.5 3 7.83579 3 8.25C3 8.66421 3.33579 9 3.75 9H6.25C6.66421 9 7 8.66421 7 8.25C7 7.83579 6.66421 7.5 6.25 7.5ZM3.75 10.5C3.33579 10.5 3 10.8358 3 11.25C3 11.6642 3.33579 12 3.75 12H10.75C11.1642 12 11.5 11.6642 11.5 11.25C11.5 10.8358 11.1642 10.5 10.75 10.5H3.75ZM13.75 12C13.3358 12 13 11.6642 13 11.25C13 10.8358 13.3358 10.5 13.75 10.5H16.25C16.6642 10.5 17 10.8358 17 11.25C17 11.6642 16.6642 12 16.25 12H13.75Z"
        fill="#242424" />
</svg>