<svg width="18" height="18" viewBox="0 0 18 18" fill="none" xmlns="http://www.w3.org/2000/svg">
    <path
        d="M14.75 0C16.5449 0 18 1.45507 18 3.25V14.75C18 16.5449 16.5449 18 14.75 18H3.25C1.45507 18 0 16.5449 0 14.75V3.25C0 1.45507 1.45507 0 3.25 0H14.75ZM14.75 1.5H3.25C2.2835 1.5 1.5 2.2835 1.5 3.25V14.75C1.5 15.7165 2.2835 16.5 3.25 16.5H14.75C15.7165 16.5 16.5 15.7165 16.5 14.75V3.25C16.5 2.2835 15.7165 1.5 14.75 1.5ZM4.75 4C5.1297 4 5.44349 4.28215 5.49315 4.64823L5.5 4.75V5.75C5.5 6.16421 5.16421 6.5 4.75 6.5C4.3703 6.5 4.05651 6.21785 4.00685 5.85177L4 5.75V4.75C4 4.33579 4.33579 4 4.75 4ZM5.49315 12.1482C5.44349 11.7822 5.1297 11.5 4.75 11.5C4.33579 11.5 4 11.8358 4 12.25V13.25L4.00685 13.3518C4.05651 13.7178 4.3703 14 4.75 14C5.16421 14 5.5 13.6642 5.5 13.25V12.25L5.49315 12.1482ZM5.5 8.32116C5.45034 7.95509 5.13654 7.67293 4.75685 7.67293C4.34263 7.67293 4.00685 8.00872 4.00685 8.42293L4 9.57116L4.00685 9.67293C4.05651 10.039 4.3703 10.3212 4.75 10.3212C5.16421 10.3212 5.5 9.98538 5.5 9.57116L5.50685 8.42293L5.5 8.32116Z"
        fill="#242424" />
</svg>